<svg xmlns="http://www.w3.org/2000/svg" viewBox="0 0 5.98 3.83"><defs><style>#Layer_2{transform:scale(.075)translate(17.5px,17.5px);}.cls-1{fill:#007aff;}</style></defs><title>bus_icon_blue</title><g id="Layer_2" data-name="Layer 2"><g id="Layer_1-2" data-name="Layer 1"><g id="Layer_2-2" data-name="Layer 2"><g id="Layer_1-2-2" data-name="Layer 1-2"><circle class="cls-1" cx="1.63" cy="3.29" r="0.54"/><circle class="cls-1" cx="4.43" cy="3.29" r="0.54"/><path class="cls-1" d="M5.25,0H.73A.73.73,0,0,0,0,.73H0V2.56a.73.73,0,0,0,.73.73H.88a.75.75,0,0,1,1.49-.06v.06H3.69a.75.75,0,0,1,1.49-.06v.06h.07A.73.73,0,0,0,6,2.56V.73A.73.73,0,0,0,5.25,0ZM5.5,1.64H5.13a1,1,0,0,1-1-1H5.29a.2.2,0,0,1,.21.2h0Z"/></g></g></g></g></svg>